<svg id="svg" version="1.1" xmlns="http://www.w3.org/2000/svg" xmlns:xlink="http://www.w3.org/1999/xlink" width="400" height="400" viewBox="0, 0, 400,400"><g id="svgg"><path id="path0" d="M168.391 106.406 C 162.181 108.511,157.593 113.145,155.769 119.153 C 154.876 122.097,154.936 193.865,155.836 197.342 C 160.034 213.580,173.909 220.015,187.296 211.933 C 190.267 210.140,199.121 204.946,202.200 203.191 C 202.860 202.815,206.280 200.836,209.800 198.794 C 213.320 196.752,216.740 194.769,217.400 194.389 C 218.060 194.009,221.480 192.034,225.000 190.000 C 228.520 187.966,231.940 185.991,232.600 185.611 C 247.902 176.792,248.253 176.573,250.537 174.437 C 258.029 167.431,257.683 157.484,249.606 147.729 C 246.642 144.149,242.179 141.217,226.400 132.489 C 225.410 131.941,224.420 131.361,224.200 131.200 C 223.980 131.039,222.990 130.456,222.000 129.905 C 221.010 129.353,211.670 124.016,201.245 118.043 C 178.186 104.832,175.667 103.940,168.391 106.406 M187.213 125.407 C 189.700 126.693,189.600 125.216,189.600 160.600 C 189.600 188.573,189.520 192.994,188.996 194.008 C 187.463 196.971,183.054 196.803,181.461 193.720 C 180.497 191.854,180.444 129.048,181.405 127.190 C 182.520 125.034,185.013 124.269,187.213 125.407 M174.094 136.767 L 175.400 137.935 175.400 160.600 L 175.400 183.266 174.094 184.433 C 172.293 186.042,170.160 186.044,168.442 184.440 L 167.200 183.279 167.200 160.609 L 167.200 137.938 168.369 136.769 C 170.000 135.138,172.269 135.137,174.094 136.767 M224.413 145.407 C 226.773 146.627,226.844 147.114,226.716 161.249 L 226.600 174.077 225.400 175.036 C 223.619 176.460,221.110 176.372,219.569 174.831 L 218.400 173.662 218.400 160.804 C 218.400 146.997,218.418 146.865,220.526 145.580 C 222.062 144.643,222.867 144.607,224.413 145.407 M237.786 151.641 L 239.200 152.883 239.200 160.411 C 239.200 169.565,238.852 170.400,235.034 170.400 C 231.261 170.400,231.025 169.850,230.875 160.739 L 230.751 153.141 232.204 151.770 C 234.128 149.956,235.822 149.917,237.786 151.641 M200.536 151.175 C 203.049 152.131,203.200 152.666,203.200 160.634 L 203.200 167.917 201.786 169.159 C 199.602 171.076,196.172 170.356,195.190 167.774 C 194.347 165.555,194.707 153.827,195.655 152.621 C 196.974 150.944,198.634 150.452,200.536 151.175 M213.113 156.624 C 215.922 158.591,215.753 163.073,212.813 164.593 C 208.904 166.615,204.936 162.392,206.998 158.404 C 207.818 156.818,209.112 156.000,210.800 156.000 C 211.582 156.000,212.623 156.281,213.113 156.624 M79.300 240.240 C 78.918 240.413,78.800 243.006,78.800 251.226 L 78.800 261.985 79.752 262.224 C 82.472 262.906,82.983 262.458,83.200 259.200 L 83.400 256.200 87.400 255.956 C 97.044 255.368,101.249 247.941,95.030 242.480 C 92.932 240.638,81.887 239.065,79.300 240.240 M104.181 240.506 C 104.074 240.785,104.034 245.780,104.093 251.606 L 104.200 262.200 111.000 262.314 C 119.662 262.459,119.680 262.455,119.522 260.287 L 119.400 258.600 114.000 258.400 L 108.600 258.200 108.492 249.419 C 108.413 243.006,108.251 240.553,107.892 240.325 C 107.096 239.819,104.394 239.951,104.181 240.506 M131.036 240.869 C 130.686 241.369,130.400 241.920,130.400 242.093 C 130.400 242.267,130.042 243.172,129.605 244.104 C 126.499 250.728,121.714 261.853,121.864 262.100 C 121.965 262.265,122.950 262.400,124.054 262.400 L 126.060 262.400 127.081 260.033 C 128.278 257.260,128.391 257.211,133.600 257.211 C 138.809 257.211,138.922 257.260,140.119 260.033 L 141.140 262.400 143.146 262.400 C 145.927 262.400,145.927 262.346,143.069 255.925 C 135.610 239.159,136.238 240.225,133.736 240.080 C 131.969 239.978,131.582 240.091,131.036 240.869 M148.132 240.310 C 147.813 240.513,148.982 242.787,151.818 247.477 L 155.970 254.347 156.085 258.274 L 156.200 262.200 158.400 262.200 L 160.600 262.200 160.800 257.800 L 161.000 253.400 164.893 247.050 C 169.020 240.318,169.115 240.000,167.009 240.000 C 164.842 240.000,164.588 240.243,161.738 245.032 C 158.434 250.584,158.382 250.590,155.600 245.751 C 152.389 240.167,150.510 238.797,148.132 240.310 M173.781 240.506 C 173.674 240.785,173.634 245.780,173.693 251.606 L 173.800 262.200 174.948 262.331 C 175.580 262.403,176.525 262.355,177.048 262.224 L 178.000 261.985 178.000 255.592 C 178.000 247.396,177.435 247.315,184.988 256.600 C 189.701 262.393,189.788 262.466,191.800 262.318 L 193.400 262.200 193.400 251.200 L 193.400 240.200 191.200 240.200 L 189.000 240.200 188.890 246.700 C 188.830 250.275,188.650 253.197,188.490 253.194 C 187.885 253.181,187.199 252.437,182.409 246.600 C 179.701 243.300,177.287 240.468,177.043 240.306 C 176.311 239.821,173.989 239.963,173.781 240.506 M201.000 240.456 C 200.882 240.762,200.834 245.780,200.893 251.606 L 201.000 262.200 203.200 262.200 L 205.400 262.200 205.516 259.146 L 205.632 256.092 209.549 255.934 C 216.927 255.638,220.392 252.270,219.394 246.364 C 219.038 244.256,216.442 241.476,214.200 240.803 C 211.652 240.038,201.265 239.765,201.000 240.456 M232.855 240.358 C 231.954 240.928,222.856 261.757,223.360 262.094 C 225.146 263.287,227.256 262.325,228.359 259.814 C 229.507 257.200,229.473 257.213,234.824 257.206 C 240.060 257.199,240.346 257.321,241.379 259.999 C 242.278 262.331,244.454 263.242,246.311 262.063 C 246.832 261.733,237.965 240.966,237.021 240.306 C 236.440 239.900,233.520 239.936,232.855 240.358 M251.485 240.249 C 250.904 240.829,251.167 254.605,251.792 256.376 C 253.740 261.899,260.340 264.182,266.028 261.300 C 270.129 259.223,270.795 257.265,270.798 247.279 L 270.800 239.958 268.700 240.079 L 266.600 240.200 266.400 247.619 C 266.142 257.189,265.559 258.363,261.047 258.387 C 258.863 258.399,258.598 258.298,257.356 256.981 L 256.017 255.561 255.909 247.881 L 255.800 240.200 253.785 240.082 C 252.676 240.017,251.641 240.092,251.485 240.249 M281.035 240.813 C 277.276 242.689,275.892 245.786,277.404 248.940 C 278.367 250.947,279.809 251.691,286.100 253.423 C 288.909 254.197,289.682 254.901,289.522 256.541 C 289.283 258.978,283.554 259.617,279.679 257.640 L 278.023 256.795 277.411 257.978 C 276.242 260.239,276.721 260.825,280.582 261.853 C 287.829 263.783,294.400 260.905,294.400 255.800 C 294.400 252.573,292.684 251.103,287.195 249.625 C 282.365 248.325,281.600 247.867,281.600 246.276 C 281.600 243.829,285.803 242.771,289.800 244.212 C 290.680 244.529,291.530 244.791,291.690 244.794 C 292.159 244.804,293.276 242.374,293.060 241.812 C 292.389 240.063,283.944 239.361,281.035 240.813 M300.181 240.506 C 300.074 240.785,300.034 245.780,300.093 251.606 L 300.200 262.200 308.400 262.200 L 316.600 262.200 316.600 260.400 L 316.600 258.600 310.700 258.489 L 304.800 258.379 304.800 255.601 L 304.800 252.824 309.895 252.712 C 315.438 252.590,315.614 252.503,315.028 250.168 C 314.787 249.209,314.740 249.200,309.792 249.200 L 304.800 249.200 304.800 246.600 L 304.800 244.000 309.967 244.000 C 312.809 244.000,315.419 243.891,315.767 243.757 C 316.640 243.422,316.640 240.578,315.767 240.243 C 314.445 239.735,300.385 239.973,300.181 240.506 M90.808 244.604 C 93.116 245.798,93.595 249.095,91.731 250.960 C 90.709 251.982,90.505 252.023,87.031 251.914 L 83.400 251.800 83.283 248.433 C 83.218 246.582,83.258 244.827,83.370 244.533 C 83.667 243.760,89.278 243.813,90.808 244.604 M212.808 244.604 C 217.379 246.968,214.899 252.000,209.164 252.000 L 205.600 252.000 205.600 248.000 L 205.600 244.000 208.620 244.000 C 210.531 244.000,212.069 244.222,212.808 244.604 M235.718 246.500 C 239.003 253.512,238.964 254.002,235.113 253.994 C 230.753 253.985,230.742 253.963,232.787 249.229 C 234.717 244.762,234.847 244.641,235.718 246.500 M135.722 249.264 C 137.643 253.866,137.591 254.002,133.913 253.994 C 129.700 253.985,129.706 253.997,131.483 249.467 C 133.402 244.577,133.758 244.560,135.722 249.264 " stroke="none" fill="#050505" fill-rule="evenodd"></path><path id="path1" d="M0.000 200.000 L 0.000 400.000 200.000 400.000 L 400.000 400.000 400.000 200.000 L 400.000 0.000 200.000 0.000 L 0.000 0.000 0.000 200.000 M177.897 105.277 C 181.141 105.875,183.562 107.088,197.000 114.851 C 202.940 118.282,215.900 125.727,225.800 131.396 C 246.006 142.965,246.298 143.149,248.817 145.851 C 259.276 157.073,258.867 170.216,247.836 177.403 C 246.716 178.133,239.500 182.363,231.800 186.804 C 218.612 194.410,210.894 198.870,195.800 207.610 C 192.280 209.649,188.680 211.797,187.800 212.385 C 174.557 221.230,158.417 213.367,154.989 196.400 C 153.976 191.382,154.298 121.005,155.348 118.206 C 158.877 108.795,168.146 103.480,177.897 105.277 M182.675 126.722 L 181.600 127.844 181.600 160.553 L 181.600 193.262 182.769 194.431 C 184.414 196.076,186.854 195.901,188.287 194.035 C 188.661 193.548,188.778 185.748,188.787 160.575 L 188.800 127.750 187.678 126.675 C 186.127 125.189,184.125 125.208,182.675 126.722 M169.644 136.542 C 167.610 137.704,167.629 137.480,167.614 160.520 C 167.599 184.131,167.576 183.895,169.965 184.728 C 171.561 185.284,173.167 184.796,174.173 183.449 C 175.131 182.166,175.719 142.235,174.825 139.165 C 174.090 136.642,171.640 135.402,169.644 136.542 M220.663 146.053 C 218.759 147.159,217.706 169.408,219.369 173.388 C 220.562 176.244,224.378 176.112,225.894 173.161 C 226.551 171.883,226.606 149.910,225.957 148.048 C 225.256 146.037,222.486 144.993,220.663 146.053 M232.522 152.164 L 231.400 153.129 231.272 159.815 C 231.137 166.897,231.386 168.324,232.944 169.416 C 234.214 170.305,236.194 170.139,237.478 169.035 L 238.600 168.070 238.600 160.601 L 238.600 153.132 237.478 152.166 C 235.994 150.889,234.007 150.889,232.522 152.164 M197.100 152.032 C 194.308 153.658,194.341 167.670,197.140 169.168 C 198.486 169.888,200.276 169.668,201.478 168.634 L 202.600 167.668 202.600 160.666 C 202.600 153.806,202.580 153.643,201.630 152.632 C 200.593 151.528,198.452 151.245,197.100 152.032 M209.331 156.983 C 206.296 158.304,206.360 162.956,209.432 164.239 C 212.042 165.330,214.400 163.602,214.400 160.600 C 214.400 158.633,213.793 157.640,212.181 156.966 C 210.589 156.301,210.904 156.299,209.331 156.983 M291.667 240.198 C 293.967 241.005,294.218 241.591,293.224 243.838 C 292.314 245.897,292.626 245.820,289.487 244.761 C 286.644 243.801,284.015 243.901,282.784 245.015 C 281.043 246.590,282.197 247.623,287.181 248.953 C 301.034 252.649,295.183 266.036,281.200 262.637 C 278.381 261.951,276.000 260.800,276.000 260.122 C 276.000 259.613,277.574 256.000,277.796 256.000 C 277.855 256.000,278.950 256.479,280.230 257.065 C 283.206 258.428,287.063 258.605,288.356 257.438 C 290.121 255.844,288.945 254.762,284.113 253.534 C 278.516 252.112,276.331 250.179,276.336 246.655 C 276.345 240.686,283.937 237.488,291.667 240.198 M93.438 240.691 C 102.352 245.383,98.885 255.760,88.200 256.371 L 84.200 256.600 84.080 259.389 C 84.010 260.996,83.756 262.307,83.480 262.483 C 82.716 262.968,79.008 262.848,78.480 262.320 C 77.779 261.619,77.798 240.767,78.500 240.047 C 79.417 239.107,91.410 239.623,93.438 240.691 M108.800 248.600 L 109.000 257.400 114.315 257.600 C 118.446 257.755,119.715 257.934,120.009 258.400 C 120.547 259.252,120.490 261.750,119.920 262.320 C 119.413 262.827,105.086 263.038,103.833 262.557 C 103.162 262.300,102.827 240.506,103.484 239.850 C 103.640 239.694,104.855 239.619,106.184 239.683 L 108.600 239.800 108.800 248.600 M136.260 239.906 C 136.512 240.068,138.332 243.800,140.304 248.200 C 142.276 252.600,144.485 257.520,145.213 259.134 C 146.748 262.535,146.623 262.784,143.376 262.794 C 140.917 262.801,140.303 262.355,139.395 259.900 L 138.691 258.000 133.600 258.000 L 128.509 258.000 127.805 259.900 C 126.897 262.355,126.283 262.801,123.824 262.794 C 120.298 262.783,120.248 262.986,127.780 246.600 C 128.084 245.940,128.801 244.334,129.375 243.030 C 129.948 241.727,130.616 240.422,130.858 240.130 C 131.330 239.561,135.452 239.390,136.260 239.906 M153.317 240.900 C 153.844 241.615,155.142 243.690,156.201 245.512 C 158.530 249.515,158.245 249.585,161.532 244.190 L 164.207 239.800 166.562 239.678 C 170.207 239.490,170.193 239.591,165.463 247.454 L 161.200 254.541 161.200 258.190 C 161.200 262.443,160.980 262.800,158.353 262.800 C 155.180 262.800,155.200 262.828,155.200 258.304 L 155.200 254.295 150.955 247.298 C 146.235 239.518,146.246 239.616,150.080 239.606 C 152.192 239.600,152.430 239.696,153.317 240.900 M178.123 240.500 C 178.610 240.995,180.987 243.827,183.404 246.793 L 187.800 252.185 187.911 246.420 C 188.044 239.572,188.069 239.524,191.363 239.683 L 193.800 239.800 193.906 250.972 C 194.023 263.238,194.115 262.783,191.533 262.794 C 189.269 262.803,189.165 262.715,183.987 256.368 C 181.309 253.086,178.957 250.400,178.759 250.400 C 178.562 250.400,178.400 253.081,178.400 256.357 C 178.400 262.973,178.475 262.800,175.600 262.800 C 172.618 262.800,172.800 263.552,172.800 251.224 C 172.800 245.124,172.920 240.013,173.067 239.867 C 173.758 239.175,177.249 239.613,178.123 240.500 M215.910 240.974 C 223.935 245.401,220.593 255.824,211.000 256.287 C 205.757 256.540,206.000 256.380,206.000 259.565 C 206.000 262.660,205.870 262.800,203.000 262.800 C 199.786 262.800,200.000 263.630,200.000 251.191 C 200.000 242.677,200.117 240.015,200.500 239.844 C 202.399 239.000,213.854 239.840,215.910 240.974 M237.475 239.914 C 238.500 240.566,247.740 262.066,247.154 262.437 C 244.840 263.902,241.712 262.657,240.637 259.842 L 239.934 258.000 234.867 258.001 L 229.800 258.003 229.045 259.901 C 228.629 260.946,228.010 262.025,227.668 262.300 C 226.752 263.038,222.835 262.957,222.543 262.195 C 222.331 261.644,230.488 242.616,231.842 240.500 C 232.437 239.571,236.302 239.169,237.475 239.914 M256.400 247.419 C 256.652 257.024,257.378 258.437,261.761 257.864 C 265.097 257.428,265.382 256.673,265.525 247.900 C 265.666 239.243,265.515 239.615,268.892 239.606 C 271.789 239.598,271.736 239.416,271.536 248.705 C 271.302 259.511,268.621 263.200,261.000 263.200 C 253.031 263.200,250.428 259.152,250.410 246.733 C 250.399 239.198,250.201 239.607,253.800 239.723 L 256.200 239.800 256.400 247.419 M316.720 242.100 L 316.840 244.400 311.020 244.400 L 305.200 244.400 305.200 246.588 L 305.200 248.776 310.300 248.888 L 315.400 249.000 315.524 250.730 C 315.719 253.432,315.393 253.600,309.951 253.600 L 305.200 253.600 305.200 255.800 L 305.200 258.000 310.920 258.000 C 314.836 258.000,316.791 258.151,317.120 258.480 C 317.918 259.278,317.720 261.908,316.826 262.386 C 316.000 262.828,300.935 262.980,299.833 262.557 C 298.988 262.233,298.860 240.207,299.700 239.861 C 299.975 239.748,303.890 239.688,308.400 239.727 L 316.600 239.800 316.720 242.100 M84.300 244.623 C 84.135 244.794,84.000 246.433,84.000 248.267 L 84.000 251.600 86.700 251.594 C 94.066 251.578,94.686 245.233,87.387 244.568 C 85.854 244.428,84.465 244.453,84.300 244.623 M206.300 244.622 C 206.135 244.793,206.000 246.452,206.000 248.309 L 206.000 251.685 209.239 251.538 C 213.751 251.333,215.399 249.492,213.815 246.429 C 213.036 244.923,207.333 243.552,206.300 244.622 M132.454 248.837 C 130.379 253.449,130.315 253.200,133.573 253.200 C 135.128 253.200,136.400 253.062,136.400 252.892 C 136.400 252.562,134.002 246.709,133.755 246.437 C 133.674 246.347,133.088 247.427,132.454 248.837 M233.518 249.105 C 232.922 250.587,232.318 252.115,232.175 252.500 C 231.942 253.125,232.217 253.200,234.757 253.200 C 238.067 253.200,237.958 253.455,236.330 249.500 C 234.788 245.753,234.860 245.763,233.518 249.105 " stroke="none" fill="#fbfbfb" fill-rule="evenodd"></path><path id="path2" d="M170.623 105.147 C 169.975 105.286,171.495 105.400,174.000 105.400 C 176.505 105.400,178.025 105.286,177.377 105.147 C 176.730 105.008,175.210 104.895,174.000 104.895 C 172.790 104.895,171.270 105.008,170.623 105.147 M162.760 108.468 C 160.625 110.007,158.398 112.379,157.460 114.115 C 156.797 115.340,156.798 115.354,157.463 114.400 C 158.409 113.046,162.762 108.719,164.000 107.902 C 164.550 107.539,164.892 107.233,164.760 107.221 C 164.628 107.209,163.728 107.771,162.760 108.468 M183.600 107.379 C 183.600 107.489,184.140 107.859,184.800 108.200 C 185.460 108.541,186.000 108.731,186.000 108.621 C 186.000 108.511,185.460 108.141,184.800 107.800 C 184.140 107.459,183.600 107.269,183.600 107.379 M187.200 109.564 C 187.750 110.014,188.380 110.383,188.600 110.385 C 189.028 110.388,188.305 109.834,187.000 109.160 C 186.469 108.885,186.536 109.021,187.200 109.564 M192.800 112.764 C 193.350 113.214,193.980 113.583,194.200 113.585 C 194.628 113.588,193.905 113.034,192.600 112.360 C 192.069 112.085,192.136 112.221,192.800 112.764 M198.400 115.964 C 198.950 116.414,199.580 116.783,199.800 116.785 C 200.228 116.788,199.505 116.234,198.200 115.560 C 197.669 115.285,197.736 115.421,198.400 115.964 M204.400 119.379 C 204.400 119.489,204.940 119.859,205.600 120.200 C 206.260 120.541,206.800 120.731,206.800 120.621 C 206.800 120.511,206.260 120.141,205.600 119.800 C 204.940 119.459,204.400 119.269,204.400 119.379 M154.653 120.836 C 154.514 121.531,154.422 122.663,154.449 123.350 C 154.478 124.094,154.638 123.640,154.843 122.228 C 155.211 119.704,155.076 118.718,154.653 120.836 M210.000 122.579 C 210.000 122.689,210.540 123.059,211.200 123.400 C 211.860 123.741,212.400 123.931,212.400 123.821 C 212.400 123.711,211.860 123.341,211.200 123.000 C 210.540 122.659,210.000 122.469,210.000 122.579 M187.570 126.547 C 188.652 127.723,188.866 127.838,188.580 127.091 C 188.472 126.812,187.983 126.338,187.492 126.039 C 186.641 125.520,186.645 125.544,187.570 126.547 M215.600 125.779 C 215.600 125.889,216.140 126.259,216.800 126.600 C 217.460 126.941,218.000 127.131,218.000 127.021 C 218.000 126.911,217.460 126.541,216.800 126.200 C 216.140 125.859,215.600 125.669,215.600 125.779 M188.991 160.400 C 188.991 178.330,189.040 185.665,189.100 176.700 C 189.160 167.735,189.160 153.065,189.100 144.100 C 189.040 135.135,188.991 142.470,188.991 160.400 M181.391 160.600 C 181.391 178.420,181.440 185.768,181.500 176.930 C 181.560 168.091,181.560 153.511,181.500 144.530 C 181.440 135.548,181.391 142.780,181.391 160.600 M221.200 128.979 C 221.200 129.089,221.740 129.459,222.400 129.800 C 223.060 130.141,223.600 130.331,223.600 130.221 C 223.600 130.111,223.060 129.741,222.400 129.400 C 221.740 129.059,221.200 128.869,221.200 128.979 M226.800 132.179 C 226.800 132.289,227.340 132.659,228.000 133.000 C 228.660 133.341,229.200 133.531,229.200 133.421 C 229.200 133.311,228.660 132.941,228.000 132.600 C 227.340 132.259,226.800 132.069,226.800 132.179 M232.400 135.379 C 232.400 135.489,232.940 135.859,233.600 136.200 C 234.260 136.541,234.800 136.731,234.800 136.621 C 234.800 136.511,234.260 136.141,233.600 135.800 C 232.940 135.459,232.400 135.269,232.400 135.379 M169.100 136.432 C 167.221 137.527,167.199 137.804,167.214 160.680 C 167.226 179.300,167.311 182.335,167.842 183.200 C 168.179 183.750,168.308 183.840,168.128 183.400 C 167.582 182.067,167.507 139.591,168.048 138.284 C 168.302 137.670,168.981 136.912,169.555 136.600 C 170.130 136.288,170.420 136.030,170.200 136.028 C 169.980 136.026,169.485 136.208,169.100 136.432 M172.800 136.511 C 173.350 136.786,174.115 137.639,174.499 138.406 C 174.884 139.173,175.199 139.563,175.199 139.274 C 175.201 137.936,173.564 136.032,172.400 136.019 C 172.070 136.015,172.250 136.237,172.800 136.511 M236.000 137.564 C 236.550 138.014,237.180 138.383,237.400 138.385 C 237.828 138.388,237.105 137.834,235.800 137.160 C 235.269 136.885,235.336 137.021,236.000 137.564 M238.000 138.579 C 238.000 138.689,238.540 139.059,239.200 139.400 C 239.860 139.741,240.400 139.931,240.400 139.821 C 240.400 139.711,239.860 139.341,239.200 139.000 C 238.540 138.659,238.000 138.469,238.000 138.579 M241.600 140.764 C 242.150 141.214,242.780 141.583,243.000 141.585 C 243.428 141.588,242.705 141.034,241.400 140.360 C 240.869 140.085,240.936 140.221,241.600 140.764 M248.160 145.565 C 249.435 146.976,251.116 149.091,251.896 150.265 C 252.675 151.439,253.388 152.400,253.480 152.400 C 254.080 152.400,249.807 146.726,247.758 144.800 C 246.008 143.156,246.043 143.222,248.160 145.565 M219.629 146.654 C 219.173 147.234,218.807 147.999,218.816 148.354 C 218.824 148.709,219.078 148.433,219.379 147.740 C 219.681 147.047,220.259 146.288,220.664 146.052 C 221.069 145.817,221.188 145.619,220.929 145.612 C 220.670 145.605,220.085 146.074,219.629 146.654 M218.486 160.513 C 218.388 173.626,218.518 174.389,221.023 175.435 C 221.821 175.769,222.664 175.979,222.895 175.902 C 223.127 175.824,222.573 175.539,221.664 175.267 C 219.046 174.482,219.025 174.376,218.786 161.000 L 218.572 149.000 218.486 160.513 M196.369 152.369 C 195.726 153.012,195.201 153.777,195.201 154.069 C 195.202 154.361,195.557 154.020,195.989 153.311 C 196.733 152.091,197.223 151.841,199.600 151.466 C 200.263 151.362,200.085 151.291,199.069 151.254 C 197.868 151.212,197.286 151.452,196.369 152.369 M238.600 160.626 C 238.600 164.667,238.722 167.664,238.872 167.287 C 239.242 166.352,239.261 154.316,238.894 153.739 C 238.732 153.486,238.600 156.584,238.600 160.626 M202.600 160.574 C 202.600 164.395,202.732 167.314,202.894 167.061 C 203.261 166.485,203.242 155.248,202.872 154.313 C 202.722 153.936,202.600 156.753,202.600 160.574 M208.254 157.229 C 207.674 157.685,207.205 158.270,207.212 158.529 C 207.219 158.788,207.417 158.669,207.652 158.264 C 207.888 157.859,208.647 157.281,209.340 156.979 C 210.033 156.678,210.309 156.424,209.954 156.416 C 209.599 156.407,208.834 156.773,208.254 157.229 M212.260 156.979 C 212.953 157.281,213.712 157.859,213.948 158.264 C 214.183 158.669,214.381 158.788,214.388 158.529 C 214.404 157.898,212.456 156.396,211.646 156.416 C 211.291 156.424,211.567 156.678,212.260 156.979 M256.144 162.400 C 256.144 164.490,256.212 165.345,256.294 164.300 C 256.376 163.255,256.376 161.545,256.294 160.500 C 256.212 159.455,256.144 160.310,256.144 162.400 M206.893 160.400 C 206.893 161.170,206.975 161.485,207.076 161.100 C 207.176 160.715,207.176 160.085,207.076 159.700 C 206.975 159.315,206.893 159.630,206.893 160.400 M214.493 160.400 C 214.493 161.170,214.575 161.485,214.676 161.100 C 214.776 160.715,214.776 160.085,214.676 159.700 C 214.575 159.315,214.493 159.630,214.493 160.400 M231.200 167.489 C 231.200 167.721,231.571 168.336,232.024 168.856 L 232.847 169.800 232.145 168.600 C 231.220 167.021,231.200 166.997,231.200 167.489 M254.278 170.205 C 253.912 170.972,253.695 171.600,253.796 171.600 C 254.070 171.600,255.284 169.151,255.101 168.968 C 255.014 168.881,254.644 169.438,254.278 170.205 M233.462 170.100 C 233.564 170.265,234.256 170.400,235.000 170.400 C 235.744 170.400,236.436 170.265,236.538 170.100 C 236.640 169.935,235.948 169.800,235.000 169.800 C 234.052 169.800,233.360 169.935,233.462 170.100 M250.987 174.491 C 249.674 175.861,249.132 176.536,249.782 175.991 C 251.156 174.839,251.462 174.541,252.770 173.082 C 254.617 171.021,253.364 172.011,250.987 174.491 M226.000 172.808 C 226.000 173.105,225.599 173.775,225.109 174.296 C 224.515 174.929,224.430 175.163,224.853 175.001 C 225.614 174.709,226.645 172.911,226.267 172.534 C 226.120 172.387,226.000 172.510,226.000 172.808 M242.500 180.226 C 241.565 180.787,240.800 181.340,240.800 181.455 C 240.800 181.671,243.499 180.138,244.180 179.536 C 244.867 178.928,244.227 179.191,242.500 180.226 M174.800 182.146 C 174.800 182.446,174.422 183.211,173.961 183.846 L 173.122 185.000 174.161 183.878 C 175.080 182.885,175.553 181.600,175.000 181.600 C 174.890 181.600,174.800 181.846,174.800 182.146 M238.800 182.436 C 238.136 182.979,238.069 183.115,238.600 182.840 C 239.905 182.166,240.628 181.612,240.200 181.615 C 239.980 181.617,239.350 181.986,238.800 182.436 M236.000 184.036 C 235.336 184.579,235.269 184.715,235.800 184.440 C 237.105 183.766,237.828 183.212,237.400 183.215 C 237.180 183.217,236.550 183.586,236.000 184.036 M170.557 185.280 C 170.872 185.456,171.550 185.440,172.065 185.245 C 172.869 184.940,172.789 184.895,171.492 184.924 C 170.512 184.947,170.184 185.071,170.557 185.280 M233.500 185.429 C 232.005 186.240,232.096 186.578,233.600 185.800 C 234.260 185.459,234.800 185.094,234.800 184.990 C 234.800 184.732,234.757 184.747,233.500 185.429 M227.300 189.026 C 226.365 189.587,225.600 190.140,225.600 190.255 C 225.600 190.471,228.299 188.938,228.980 188.336 C 229.667 187.728,229.027 187.991,227.300 189.026 M223.600 191.236 C 222.936 191.779,222.869 191.915,223.400 191.640 C 224.705 190.966,225.428 190.412,225.000 190.415 C 224.780 190.417,224.150 190.786,223.600 191.236 M154.447 192.833 C 154.473 193.585,154.641 194.740,154.820 195.400 C 155.035 196.189,155.070 195.778,154.923 194.200 C 154.677 191.555,154.373 190.681,154.447 192.833 M220.800 192.836 C 220.136 193.379,220.069 193.515,220.600 193.240 C 221.905 192.566,222.628 192.012,222.200 192.015 C 221.980 192.017,221.350 192.386,220.800 192.836 M181.600 193.595 C 181.600 195.260,185.406 196.459,187.200 195.358 C 187.841 194.965,187.913 194.848,187.400 195.033 C 185.159 195.842,184.044 195.705,182.812 194.473 C 182.145 193.807,181.600 193.412,181.600 193.595 M218.300 194.229 C 216.805 195.040,216.896 195.378,218.400 194.600 C 219.060 194.259,219.600 193.894,219.600 193.790 C 219.600 193.532,219.557 193.547,218.300 194.229 M212.700 197.429 C 211.205 198.240,211.296 198.578,212.800 197.800 C 213.460 197.459,214.000 197.094,214.000 196.990 C 214.000 196.732,213.957 196.747,212.700 197.429 M155.256 197.600 C 155.256 197.930,155.411 198.560,155.600 199.000 C 155.817 199.504,155.944 199.578,155.944 199.200 C 155.944 198.870,155.789 198.240,155.600 197.800 C 155.383 197.296,155.256 197.222,155.256 197.600 M205.600 201.636 C 204.936 202.179,204.869 202.315,205.400 202.040 C 206.705 201.366,207.428 200.812,207.000 200.815 C 206.780 200.817,206.150 201.186,205.600 201.636 M203.100 203.029 C 201.605 203.840,201.696 204.178,203.200 203.400 C 203.860 203.059,204.400 202.694,204.400 202.590 C 204.400 202.332,204.357 202.347,203.100 203.029 M197.500 206.229 C 196.005 207.040,196.096 207.378,197.600 206.600 C 198.260 206.259,198.800 205.894,198.800 205.790 C 198.800 205.532,198.757 205.547,197.500 206.229 M159.930 207.500 C 160.361 208.105,161.129 208.960,161.637 209.400 C 162.145 209.840,161.872 209.345,161.032 208.300 C 159.374 206.239,158.663 205.722,159.930 207.500 M190.400 210.436 C 189.736 210.979,189.669 211.115,190.200 210.840 C 191.505 210.166,192.228 209.612,191.800 209.615 C 191.580 209.617,190.950 209.986,190.400 210.436 M163.400 211.163 C 164.226 212.117,166.400 213.792,166.400 213.475 C 166.400 213.377,165.545 212.609,164.500 211.768 C 163.455 210.928,162.960 210.655,163.400 211.163 M171.000 215.600 C 171.440 215.789,172.070 215.944,172.400 215.944 C 172.778 215.944,172.704 215.817,172.200 215.600 C 171.760 215.411,171.130 215.256,170.800 215.256 C 170.422 215.256,170.496 215.383,171.000 215.600 M179.400 215.600 C 178.896 215.817,178.822 215.944,179.200 215.944 C 179.530 215.944,180.160 215.789,180.600 215.600 C 181.104 215.383,181.178 215.256,180.800 215.256 C 180.470 215.256,179.840 215.411,179.400 215.600 M174.905 216.287 C 175.514 216.379,176.414 216.377,176.905 216.282 C 177.397 216.187,176.900 216.111,175.800 216.114 C 174.700 216.117,174.297 216.195,174.905 216.287 M283.633 239.344 C 283.725 239.424,285.330 239.581,287.200 239.694 C 289.072 239.808,290.061 239.764,289.400 239.597 C 288.186 239.291,283.326 239.078,283.633 239.344 M81.718 239.898 C 83.433 239.973,86.133 239.972,87.718 239.897 C 89.303 239.821,87.900 239.759,84.600 239.760 C 81.300 239.761,80.003 239.822,81.718 239.898 M103.462 239.900 C 103.360 240.065,104.114 240.147,105.138 240.083 C 108.312 239.884,108.709 239.711,106.124 239.654 C 104.762 239.625,103.564 239.735,103.462 239.900 M130.749 240.300 C 130.268 240.913,130.276 240.941,130.814 240.523 C 131.151 240.260,132.501 239.979,133.814 239.898 L 136.200 239.751 133.749 239.676 C 131.829 239.616,131.179 239.752,130.749 240.300 M148.700 239.889 C 149.415 239.978,150.585 239.978,151.300 239.889 C 152.015 239.801,151.430 239.728,150.000 239.728 C 148.570 239.728,147.985 239.801,148.700 239.889 M163.693 240.700 C 162.632 242.232,162.321 242.800,162.544 242.800 C 162.649 242.800,163.124 242.170,163.600 241.400 C 164.431 240.055,164.559 240.000,166.833 240.000 C 169.467 240.000,169.440 239.975,168.590 241.620 C 168.254 242.269,168.069 242.800,168.179 242.800 C 168.577 242.800,169.627 240.367,169.393 239.988 C 168.791 239.014,164.488 239.552,163.693 240.700 M173.057 239.907 C 172.953 240.076,173.617 240.157,174.534 240.086 C 177.225 239.879,177.553 239.696,175.324 239.646 C 174.182 239.621,173.162 239.738,173.057 239.907 M188.497 240.063 C 188.148 240.412,187.997 242.292,187.988 246.380 L 187.977 252.200 186.888 250.974 C 186.290 250.300,185.020 248.860,184.067 247.774 C 183.114 246.688,183.475 247.226,184.871 248.968 C 188.447 253.434,188.360 253.498,188.489 246.330 L 188.600 240.200 191.094 240.081 L 193.587 239.962 193.703 251.081 L 193.819 262.200 193.809 251.000 L 193.800 239.800 191.397 239.683 C 189.872 239.609,188.812 239.748,188.497 240.063 M200.500 239.865 C 200.117 240.020,200.000 242.666,200.000 251.191 C 200.000 263.744,199.742 262.850,203.333 262.733 L 205.400 262.666 203.000 262.433 L 200.600 262.200 200.600 251.200 L 200.600 240.200 206.600 239.984 L 212.600 239.767 206.800 239.715 C 203.610 239.687,200.775 239.754,200.500 239.865 M233.500 239.889 C 234.215 239.978,235.385 239.978,236.100 239.889 C 236.815 239.801,236.230 239.728,234.800 239.728 C 233.370 239.728,232.785 239.801,233.500 239.889 M250.900 239.865 C 250.522 240.018,250.421 241.789,250.486 247.133 L 250.571 254.200 250.786 247.200 L 251.000 240.200 253.500 240.081 L 256.000 239.962 256.028 246.881 C 256.044 250.686,256.179 254.110,256.328 254.489 C 256.618 255.222,256.487 240.947,256.197 240.100 C 256.027 239.604,251.990 239.425,250.900 239.865 M266.100 239.865 C 265.722 240.018,265.621 241.789,265.686 247.133 L 265.771 254.200 265.986 247.200 L 266.200 240.200 268.800 239.969 L 271.400 239.738 269.000 239.701 C 267.680 239.680,266.375 239.754,266.100 239.865 M299.700 239.865 C 298.859 240.204,298.988 262.233,299.833 262.557 C 300.181 262.691,304.096 262.761,308.533 262.712 L 316.600 262.625 308.200 262.412 L 299.800 262.200 299.800 251.200 L 299.800 240.200 308.262 240.200 C 312.916 240.200,316.641 240.065,316.538 239.900 C 316.335 239.571,300.509 239.538,299.700 239.865 M178.351 241.100 C 178.793 241.705,179.900 243.010,180.809 244.000 C 181.793 245.071,181.527 244.626,180.151 242.900 C 177.881 240.050,176.770 238.940,178.351 241.100 M237.634 240.200 C 237.634 240.420,237.978 241.230,238.400 242.000 C 238.822 242.770,239.166 243.220,239.166 243.000 C 239.166 242.780,238.822 241.970,238.400 241.200 C 237.978 240.430,237.634 239.980,237.634 240.200 M291.875 240.585 C 292.576 240.913,293.336 241.501,293.563 241.891 C 293.790 242.281,293.981 242.388,293.988 242.129 C 294.002 241.590,292.912 240.400,292.404 240.400 C 292.218 240.400,291.736 240.307,291.333 240.194 C 290.930 240.081,291.174 240.257,291.875 240.585 M78.175 251.200 C 78.175 257.250,78.231 259.725,78.299 256.700 C 78.367 253.675,78.367 248.725,78.299 245.700 C 78.231 242.675,78.175 245.150,78.175 251.200 M271.365 247.200 C 271.365 251.050,271.425 252.625,271.498 250.700 C 271.571 248.775,271.571 245.625,271.498 243.700 C 271.425 241.775,271.365 243.350,271.365 247.200 M216.200 241.367 C 216.640 241.710,217.521 242.488,218.157 243.095 C 219.281 244.167,219.296 244.170,218.675 243.196 C 218.322 242.644,217.442 241.867,216.717 241.468 C 215.860 240.996,215.679 240.961,216.200 241.367 M130.000 241.284 C 130.000 241.404,129.728 242.154,129.395 242.951 C 129.062 243.748,128.879 244.400,128.989 244.400 C 129.306 244.400,130.433 241.500,130.205 241.272 C 130.092 241.159,130.000 241.165,130.000 241.284 M154.200 242.800 C 154.541 243.460,154.911 244.000,155.021 244.000 C 155.131 244.000,154.941 243.460,154.600 242.800 C 154.259 242.140,153.889 241.600,153.779 241.600 C 153.669 241.600,153.859 242.140,154.200 242.800 M167.108 244.100 C 166.233 245.449,165.448 247.056,165.887 246.600 C 166.448 246.017,168.098 243.200,167.879 243.200 C 167.776 243.200,167.429 243.605,167.108 244.100 M149.400 244.800 C 149.741 245.460,150.111 246.000,150.221 246.000 C 150.331 246.000,150.141 245.460,149.800 244.800 C 149.459 244.140,149.089 243.600,148.979 243.600 C 148.869 243.600,149.059 244.140,149.400 244.800 M84.252 244.316 C 84.144 244.490,84.718 244.567,85.528 244.487 C 87.742 244.269,88.005 244.067,86.124 244.032 C 85.202 244.014,84.359 244.142,84.252 244.316 M207.505 244.283 C 208.002 244.379,208.722 244.375,209.105 244.275 C 209.487 244.175,209.080 244.096,208.200 244.101 C 207.320 244.105,207.007 244.187,207.505 244.283 M282.562 244.900 C 281.806 245.792,281.807 245.794,282.600 245.152 C 283.040 244.796,283.670 244.405,284.000 244.284 C 284.509 244.097,284.504 244.058,283.962 244.032 C 283.611 244.014,282.981 244.405,282.562 244.900 M287.633 244.144 C 287.725 244.223,288.340 244.408,289.000 244.556 C 289.876 244.752,290.038 244.715,289.600 244.418 C 289.060 244.053,287.232 243.798,287.633 244.144 M304.964 244.551 C 304.847 244.854,304.820 245.979,304.904 247.051 L 305.056 249.000 305.128 246.711 L 305.200 244.421 311.100 244.299 L 317.000 244.177 311.087 244.088 C 306.374 244.018,305.132 244.112,304.964 244.551 M138.400 244.484 C 138.400 244.916,139.615 247.600,139.811 247.600 C 139.921 247.600,139.733 246.934,139.393 246.121 C 138.793 244.686,138.400 244.038,138.400 244.484 M160.653 245.700 L 159.933 247.000 160.758 246.000 C 161.489 245.113,161.814 244.400,161.486 244.400 C 161.424 244.400,161.049 244.985,160.653 245.700 M205.685 248.100 L 205.800 251.800 208.503 251.918 C 209.989 251.983,211.463 251.893,211.778 251.717 C 212.092 251.540,210.908 251.462,209.145 251.542 L 205.941 251.687 206.070 248.043 C 206.142 246.038,206.058 244.399,205.885 244.399 C 205.712 244.400,205.622 246.065,205.685 248.100 M213.200 245.600 C 213.640 246.040,214.000 246.610,214.000 246.867 C 214.000 247.123,214.114 247.219,214.254 247.079 C 214.575 246.759,213.317 244.800,212.791 244.800 C 212.576 244.800,212.760 245.160,213.200 245.600 M291.113 245.323 C 291.667 245.572,292.170 245.590,292.391 245.367 C 292.613 245.145,292.252 244.982,291.478 244.956 C 290.288 244.914,290.263 244.940,291.113 245.323 M83.776 248.600 L 83.800 251.800 86.503 251.918 C 87.989 251.983,89.463 251.893,89.778 251.717 C 90.092 251.540,88.929 251.461,87.192 251.540 L 84.034 251.683 83.893 248.542 L 83.752 245.400 83.776 248.600 M97.767 248.000 C 97.767 250.610,97.814 250.805,98.123 249.500 C 98.332 248.623,98.332 247.377,98.123 246.500 C 97.814 245.195,97.767 245.390,97.767 248.000 M156.600 246.800 C 156.941 247.460,157.311 248.000,157.421 248.000 C 157.531 248.000,157.341 247.460,157.000 246.800 C 156.659 246.140,156.289 245.600,156.179 245.600 C 156.069 245.600,156.259 246.140,156.600 246.800 M133.075 246.258 C 132.924 246.410,132.805 246.818,132.812 247.167 C 132.822 247.678,132.908 247.655,133.259 247.052 C 133.614 246.441,133.764 246.405,134.077 246.852 C 134.396 247.307,134.435 247.303,134.305 246.825 C 134.125 246.159,133.474 245.859,133.075 246.258 M281.613 246.256 C 281.631 246.744,282.757 248.176,282.961 247.971 C 283.055 247.877,282.787 247.375,282.366 246.856 C 281.945 246.336,281.606 246.066,281.613 246.256 M92.150 247.884 C 92.174 249.015,92.296 249.372,92.521 248.969 C 92.706 248.639,92.690 247.883,92.485 247.285 C 92.148 246.300,92.118 246.355,92.150 247.884 M151.560 248.200 C 152.234 249.505,152.788 250.228,152.785 249.800 C 152.783 249.580,152.414 248.950,151.964 248.400 C 151.421 247.736,151.285 247.669,151.560 248.200 M126.465 249.417 C 125.795 250.888,125.923 251.202,126.647 249.865 C 126.986 249.240,127.188 248.654,127.096 248.563 C 127.005 248.471,126.721 248.856,126.465 249.417 M163.800 249.600 C 163.459 250.260,163.269 250.800,163.379 250.800 C 163.489 250.800,163.859 250.260,164.200 249.600 C 164.541 248.940,164.731 248.400,164.621 248.400 C 164.511 248.400,164.141 248.940,163.800 249.600 M287.000 249.200 C 287.440 249.389,288.070 249.544,288.400 249.544 C 288.778 249.544,288.704 249.417,288.200 249.200 C 287.760 249.011,287.130 248.856,286.800 248.856 C 286.422 248.856,286.496 248.983,287.000 249.200 M315.000 250.937 L 315.000 253.000 309.881 253.112 L 304.762 253.224 304.881 255.712 L 305.000 258.200 311.000 258.400 L 317.000 258.600 317.000 260.463 C 317.000 261.487,317.135 262.242,317.300 262.139 C 317.784 261.839,317.644 259.004,317.120 258.480 C 316.791 258.151,314.836 258.000,310.920 258.000 L 305.200 258.000 305.200 255.800 L 305.200 253.600 309.920 253.600 C 313.058 253.600,314.801 253.439,315.120 253.120 C 315.643 252.597,315.786 249.363,315.300 249.061 C 315.135 248.958,315.000 249.803,315.000 250.937 M178.400 249.732 C 178.400 249.805,179.322 250.840,180.449 252.032 L 182.499 254.200 180.749 251.922 C 179.263 249.987,178.400 249.183,178.400 249.732 M219.003 251.991 C 218.865 252.426,218.088 253.344,217.276 254.032 C 216.464 254.720,216.186 255.088,216.657 254.850 C 217.606 254.372,219.600 252.148,219.600 251.569 C 219.600 250.930,219.264 251.167,219.003 251.991 M293.506 252.200 C 293.935 252.860,294.387 253.670,294.511 254.000 C 294.695 254.488,294.743 254.474,294.768 253.922 C 294.786 253.550,294.333 252.740,293.763 252.122 L 292.727 251.000 293.506 252.200 M130.643 252.233 C 130.167 253.474,130.439 253.600,133.600 253.600 C 136.713 253.600,138.004 252.791,136.437 251.823 C 136.238 251.700,136.169 251.959,136.284 252.399 C 136.479 253.145,136.297 253.200,133.620 253.200 C 130.928 253.200,130.762 253.149,131.000 252.400 C 131.300 251.456,130.996 251.313,130.643 252.233 M141.600 251.684 C 141.600 252.116,142.815 254.800,143.011 254.800 C 143.121 254.800,142.933 254.134,142.593 253.321 C 141.993 251.886,141.600 251.238,141.600 251.684 M153.960 252.200 C 154.634 253.505,155.188 254.228,155.185 253.800 C 155.183 253.580,154.814 252.950,154.364 252.400 C 153.821 251.736,153.685 251.669,153.960 252.200 M124.672 253.419 C 123.732 255.389,123.864 255.724,124.847 253.862 C 125.293 253.016,125.587 252.254,125.501 252.167 C 125.414 252.081,125.041 252.644,124.672 253.419 M161.410 253.580 C 160.972 254.427,160.820 255.810,160.872 258.480 L 160.945 262.200 161.172 258.200 C 161.298 256.000,161.631 253.795,161.914 253.300 C 162.197 252.805,162.336 252.400,162.224 252.400 C 162.112 252.400,161.746 252.931,161.410 253.580 M237.600 252.832 C 237.600 253.114,236.561 253.218,234.599 253.132 C 232.949 253.059,231.599 253.135,231.599 253.300 C 231.600 253.465,233.040 253.600,234.800 253.600 C 237.378 253.600,238.000 253.483,238.000 253.000 C 238.000 252.670,237.910 252.400,237.800 252.400 C 237.690 252.400,237.600 252.594,237.600 252.832 M95.200 254.060 C 94.430 254.735,94.162 255.105,94.604 254.881 C 95.335 254.511,97.147 252.778,96.762 252.816 C 96.673 252.825,95.970 253.385,95.200 254.060 M282.033 252.944 C 282.125 253.023,282.740 253.208,283.400 253.356 C 284.276 253.552,284.438 253.515,284.000 253.218 C 283.460 252.853,281.632 252.598,282.033 252.944 M287.900 254.796 C 289.693 255.889,289.394 257.310,287.200 258.116 C 286.683 258.306,286.686 258.341,287.225 258.368 C 288.004 258.408,289.600 256.960,289.600 256.213 C 289.600 255.600,287.751 253.999,287.046 254.001 C 286.801 254.002,287.185 254.360,287.900 254.796 M155.277 258.257 C 155.189 262.884,155.159 262.842,158.533 262.733 L 160.600 262.666 158.200 262.433 L 155.800 262.200 155.577 258.200 L 155.355 254.200 155.277 258.257 M265.232 255.174 C 265.214 255.490,264.800 256.210,264.311 256.774 L 263.423 257.800 264.559 256.743 C 265.184 256.162,265.598 255.442,265.479 255.143 C 265.305 254.705,265.257 254.711,265.232 255.174 M143.234 255.400 C 143.234 255.620,143.578 256.430,144.000 257.200 C 144.422 257.970,144.766 258.420,144.766 258.200 C 144.766 257.980,144.422 257.170,144.000 256.400 C 143.578 255.630,143.234 255.180,143.234 255.400 M270.629 256.229 C 270.481 256.815,270.438 257.372,270.532 257.466 C 270.627 257.560,270.824 257.158,270.971 256.571 C 271.119 255.985,271.162 255.428,271.068 255.334 C 270.973 255.240,270.776 255.642,270.629 256.229 M88.700 256.282 C 89.195 256.378,90.005 256.378,90.500 256.282 C 90.995 256.187,90.590 256.109,89.600 256.109 C 88.610 256.109,88.205 256.187,88.700 256.282 M210.700 256.282 C 211.195 256.378,212.005 256.378,212.500 256.282 C 212.995 256.187,212.590 256.109,211.600 256.109 C 210.610 256.109,210.205 256.187,210.700 256.282 M277.296 256.795 C 276.581 257.939,276.684 258.344,277.422 257.290 C 278.006 256.456,278.114 256.438,279.202 257.001 C 280.897 257.877,281.246 257.701,279.600 256.800 C 277.847 255.840,277.892 255.841,277.296 256.795 M205.678 259.500 L 205.757 262.600 205.899 259.811 C 205.979 258.227,206.248 256.890,206.520 256.717 C 206.846 256.510,206.775 256.410,206.300 256.406 C 205.686 256.401,205.610 256.782,205.678 259.500 M83.731 259.800 C 83.733 261.340,83.805 261.921,83.892 261.091 C 83.979 260.261,83.977 259.001,83.889 258.291 C 83.800 257.581,83.729 258.260,83.731 259.800 M108.799 257.700 C 108.800 257.865,111.095 257.969,113.900 257.930 C 119.124 257.859,118.513 257.697,112.299 257.507 C 110.374 257.448,108.799 257.535,108.799 257.700 M294.100 258.500 C 293.670 259.675,293.680 259.726,294.212 259.024 C 294.721 258.352,295.021 257.200,294.688 257.200 C 294.626 257.200,294.361 257.785,294.100 258.500 M128.191 258.015 C 128.042 258.256,128.028 258.561,128.160 258.693 C 128.292 258.825,128.400 258.723,128.400 258.467 C 128.400 257.860,138.636 257.805,138.937 258.410 C 139.049 258.636,139.094 258.590,139.037 258.310 C 138.901 257.635,128.599 257.355,128.191 258.015 M232.100 257.897 C 233.585 257.974,236.015 257.974,237.500 257.897 C 238.985 257.820,237.770 257.757,234.800 257.757 C 231.830 257.757,230.615 257.820,232.100 257.897 M259.338 258.094 C 259.592 258.256,260.340 258.388,261.000 258.388 C 261.660 258.388,262.408 258.256,262.662 258.094 C 262.916 257.932,262.168 257.800,261.000 257.800 C 259.832 257.800,259.084 257.932,259.338 258.094 M281.600 257.994 C 281.930 258.211,282.635 258.391,283.167 258.394 C 284.451 258.402,284.125 258.175,282.400 257.858 C 281.415 257.677,281.178 257.718,281.600 257.994 M186.012 258.669 C 186.019 258.851,186.694 259.728,187.512 260.618 C 189.075 262.317,188.889 261.913,187.076 259.669 C 186.484 258.937,186.005 258.487,186.012 258.669 M252.000 258.630 C 252.000 259.526,256.146 262.788,256.647 262.286 C 256.745 262.188,256.272 261.879,255.596 261.598 C 254.920 261.318,253.834 260.443,253.183 259.653 C 252.533 258.864,252.000 258.403,252.000 258.630 M276.249 259.015 C 276.112 259.373,276.015 259.966,276.034 260.333 C 276.053 260.700,276.227 260.469,276.421 259.820 C 276.798 258.558,276.665 257.933,276.249 259.015 M120.109 260.400 C 120.109 261.390,120.187 261.795,120.282 261.300 C 120.378 260.805,120.378 259.995,120.282 259.500 C 120.187 259.005,120.109 259.410,120.109 260.400 M268.430 260.168 C 267.930 260.700,266.993 261.354,266.348 261.622 C 265.702 261.889,265.253 262.187,265.350 262.283 C 265.651 262.584,267.753 261.327,268.770 260.238 C 269.303 259.667,269.649 259.200,269.539 259.200 C 269.429 259.200,268.930 259.636,268.430 260.168 M246.414 259.654 C 246.406 259.794,246.663 260.514,246.984 261.254 C 247.306 261.994,247.569 262.330,247.570 262.000 C 247.572 261.424,246.443 259.134,246.414 259.654 M121.029 261.468 C 120.657 262.437,121.505 262.796,124.000 262.727 L 126.200 262.666 123.800 262.433 C 121.805 262.239,121.420 262.082,121.518 261.500 C 121.667 260.611,121.366 260.592,121.029 261.468 M79.907 262.690 C 80.626 262.779,81.706 262.777,82.307 262.686 C 82.908 262.595,82.320 262.522,81.000 262.524 C 79.680 262.526,79.188 262.601,79.907 262.690 M107.921 262.699 C 110.188 262.770,113.788 262.770,115.921 262.698 C 118.055 262.626,116.200 262.568,111.800 262.568 C 107.400 262.568,105.655 262.627,107.921 262.699 M142.307 262.690 C 143.026 262.779,144.106 262.777,144.707 262.686 C 145.308 262.595,144.720 262.522,143.400 262.524 C 142.080 262.526,141.588 262.601,142.307 262.690 M174.500 262.687 C 175.105 262.778,176.095 262.778,176.700 262.687 C 177.305 262.595,176.810 262.520,175.600 262.520 C 174.390 262.520,173.895 262.595,174.500 262.687 M190.505 262.687 C 191.114 262.779,192.014 262.777,192.505 262.682 C 192.997 262.587,192.500 262.511,191.400 262.514 C 190.300 262.517,189.897 262.595,190.505 262.687 M223.907 262.690 C 224.626 262.779,225.706 262.777,226.307 262.686 C 226.908 262.595,226.320 262.522,225.000 262.524 C 223.680 262.526,223.188 262.601,223.907 262.690 M243.507 262.690 C 244.226 262.779,245.306 262.777,245.907 262.686 C 246.508 262.595,245.920 262.522,244.600 262.524 C 243.280 262.526,242.788 262.601,243.507 262.690 M258.076 262.860 C 258.584 263.003,259.900 263.120,261.000 263.120 C 262.100 263.120,263.416 263.003,263.924 262.860 C 264.432 262.717,263.116 262.600,261.000 262.600 C 258.884 262.600,257.568 262.717,258.076 262.860 M282.076 262.860 C 282.584 263.003,283.990 263.120,285.200 263.120 C 286.410 263.120,287.816 263.003,288.324 262.860 C 288.832 262.717,287.426 262.600,285.200 262.600 C 282.974 262.600,281.568 262.717,282.076 262.860 " stroke="none" fill="#9a9a9a" fill-rule="evenodd"></path><path id="path3" d="M172.900 105.487 C 173.505 105.578,174.495 105.578,175.100 105.487 C 175.705 105.395,175.210 105.320,174.000 105.320 C 172.790 105.320,172.295 105.395,172.900 105.487 M164.300 107.829 C 162.805 108.640,162.896 108.978,164.400 108.200 C 165.060 107.859,165.600 107.494,165.600 107.390 C 165.600 107.132,165.557 107.147,164.300 107.829 M182.800 107.379 C 182.800 107.489,183.340 107.859,184.000 108.200 C 184.660 108.541,185.200 108.731,185.200 108.621 C 185.200 108.511,184.660 108.141,184.000 107.800 C 183.340 107.459,182.800 107.269,182.800 107.379 M160.386 111.100 L 158.200 113.400 160.500 111.214 C 162.637 109.182,162.983 108.800,162.686 108.800 C 162.624 108.800,161.589 109.835,160.386 111.100 M185.600 108.979 C 185.600 109.089,186.140 109.459,186.800 109.800 C 187.460 110.141,188.000 110.331,188.000 110.221 C 188.000 110.111,187.460 109.741,186.800 109.400 C 186.140 109.059,185.600 108.869,185.600 108.979 M188.400 110.579 C 188.400 110.689,188.940 111.059,189.600 111.400 C 190.260 111.741,190.800 111.931,190.800 111.821 C 190.800 111.711,190.260 111.341,189.600 111.000 C 188.940 110.659,188.400 110.469,188.400 110.579 M191.200 112.179 C 191.200 112.289,191.740 112.659,192.400 113.000 C 193.060 113.341,193.600 113.531,193.600 113.421 C 193.600 113.311,193.060 112.941,192.400 112.600 C 191.740 112.259,191.200 112.069,191.200 112.179 M194.000 113.779 C 194.000 113.889,194.540 114.259,195.200 114.600 C 195.860 114.941,196.400 115.131,196.400 115.021 C 196.400 114.911,195.860 114.541,195.200 114.200 C 194.540 113.859,194.000 113.669,194.000 113.779 M196.800 115.379 C 196.800 115.489,197.340 115.859,198.000 116.200 C 198.660 116.541,199.200 116.731,199.200 116.621 C 199.200 116.511,198.660 116.141,198.000 115.800 C 197.340 115.459,196.800 115.269,196.800 115.379 M199.600 116.979 C 199.600 117.089,200.140 117.459,200.800 117.800 C 201.460 118.141,202.000 118.331,202.000 118.221 C 202.000 118.111,201.460 117.741,200.800 117.400 C 200.140 117.059,199.600 116.869,199.600 116.979 M155.429 119.029 C 155.281 119.615,155.238 120.172,155.332 120.266 C 155.427 120.360,155.624 119.958,155.771 119.371 C 155.919 118.785,155.962 118.228,155.868 118.134 C 155.773 118.040,155.576 118.442,155.429 119.029 M154.992 157.800 C 154.992 177.820,155.040 185.951,155.100 175.870 C 155.159 165.788,155.159 149.408,155.100 139.470 C 155.040 129.531,154.992 137.780,154.992 157.800 M183.738 125.106 C 183.484 125.268,184.142 125.400,185.200 125.400 C 186.258 125.400,186.916 125.268,186.662 125.106 C 186.408 124.944,185.750 124.812,185.200 124.812 C 184.650 124.812,183.992 124.944,183.738 125.106 M181.043 127.833 C 180.693 128.745,180.755 192.510,181.106 193.062 C 181.268 193.316,181.400 178.601,181.400 160.362 C 181.400 142.123,181.374 127.200,181.343 127.200 C 181.311 127.200,181.176 127.485,181.043 127.833 M189.000 160.600 C 189.000 178.928,189.132 193.716,189.294 193.462 C 189.456 193.208,189.588 178.420,189.588 160.600 C 189.588 142.780,189.456 127.992,189.294 127.738 C 189.132 127.484,189.000 142.272,189.000 160.600 M218.000 127.620 C 219.387 128.561,220.178 128.835,219.200 128.036 C 218.650 127.586,218.020 127.217,217.800 127.215 C 217.580 127.213,217.670 127.396,218.000 127.620 M223.600 130.820 C 224.987 131.761,225.778 132.035,224.800 131.236 C 224.250 130.786,223.620 130.417,223.400 130.415 C 223.180 130.413,223.270 130.596,223.600 130.820 M229.200 134.020 C 230.587 134.961,231.378 135.235,230.400 134.436 C 229.850 133.986,229.220 133.617,229.000 133.615 C 228.780 133.613,228.870 133.796,229.200 134.020 M231.600 135.379 C 231.600 135.489,232.140 135.859,232.800 136.200 C 233.460 136.541,234.000 136.731,234.000 136.621 C 234.000 136.511,233.460 136.141,232.800 135.800 C 232.140 135.459,231.600 135.269,231.600 135.379 M170.300 135.882 C 170.795 135.978,171.605 135.978,172.100 135.882 C 172.595 135.787,172.190 135.709,171.200 135.709 C 170.210 135.709,169.805 135.787,170.300 135.882 M168.029 137.054 C 167.573 137.634,167.205 138.309,167.212 138.554 C 167.219 138.799,167.424 138.640,167.668 138.200 C 167.912 137.760,168.385 137.085,168.718 136.700 C 169.051 136.315,169.219 136.000,169.091 136.000 C 168.963 136.000,168.485 136.474,168.029 137.054 M234.400 136.979 C 234.400 137.089,234.940 137.459,235.600 137.800 C 236.260 138.141,236.800 138.331,236.800 138.221 C 236.800 138.111,236.260 137.741,235.600 137.400 C 234.940 137.059,234.400 136.869,234.400 136.979 M237.200 138.579 C 237.200 138.689,237.740 139.059,238.400 139.400 C 239.060 139.741,239.600 139.931,239.600 139.821 C 239.600 139.711,239.060 139.341,238.400 139.000 C 237.740 138.659,237.200 138.469,237.200 138.579 M175.387 160.400 C 175.387 172.390,175.438 177.295,175.500 171.300 C 175.562 165.305,175.562 155.495,175.500 149.500 C 175.438 143.505,175.387 148.410,175.387 160.400 M240.000 140.179 C 240.000 140.289,240.540 140.659,241.200 141.000 C 241.860 141.341,242.400 141.531,242.400 141.421 C 242.400 141.311,241.860 140.941,241.200 140.600 C 240.540 140.259,240.000 140.069,240.000 140.179 M242.800 141.724 C 242.800 141.817,243.565 142.398,244.500 143.015 C 245.435 143.632,245.989 143.880,245.731 143.568 C 245.234 142.967,242.800 141.436,242.800 141.724 M248.342 146.200 C 249.449 147.520,250.740 149.050,251.212 149.600 L 252.069 150.600 251.202 149.292 C 250.725 148.573,249.433 147.043,248.332 145.892 L 246.329 143.800 248.342 146.200 M221.338 145.106 C 221.084 145.268,221.652 145.400,222.600 145.400 C 223.548 145.400,224.116 145.268,223.862 145.106 C 223.608 144.944,223.040 144.812,222.600 144.812 C 222.160 144.812,221.592 144.944,221.338 145.106 M219.229 146.654 C 218.773 147.234,218.405 147.909,218.412 148.154 C 218.419 148.399,218.624 148.240,218.868 147.800 C 219.112 147.360,219.585 146.685,219.918 146.300 C 220.251 145.915,220.419 145.600,220.291 145.600 C 220.163 145.600,219.685 146.074,219.229 146.654 M226.578 160.600 C 226.579 167.640,226.633 170.464,226.699 166.875 C 226.766 163.286,226.766 157.526,226.699 154.075 C 226.633 150.624,226.578 153.560,226.578 160.600 M233.415 150.776 C 233.277 150.998,233.737 151.062,234.536 150.933 C 236.217 150.660,237.412 151.273,238.420 152.926 C 238.893 153.702,239.198 153.943,239.199 153.541 C 239.203 151.732,234.279 149.378,233.415 150.776 M195.970 152.300 L 195.000 153.400 196.200 152.400 C 196.860 151.850,197.475 151.355,197.567 151.300 C 197.658 151.245,197.555 151.200,197.336 151.200 C 197.118 151.200,196.503 151.695,195.970 152.300 M230.966 160.400 C 230.966 164.470,231.025 166.135,231.098 164.100 C 231.171 162.065,231.171 158.735,231.098 156.700 C 231.025 154.665,230.966 156.330,230.966 160.400 M194.965 160.400 C 194.965 164.250,195.025 165.825,195.098 163.900 C 195.171 161.975,195.171 158.825,195.098 156.900 C 195.025 154.975,194.965 156.550,194.965 160.400 M208.303 156.900 C 207.785 157.395,207.640 157.600,207.980 157.356 C 208.321 157.112,208.960 156.712,209.400 156.468 C 209.840 156.224,209.985 156.019,209.722 156.012 C 209.460 156.005,208.821 156.405,208.303 156.900 M212.200 156.468 C 212.640 156.712,213.279 157.112,213.620 157.356 C 213.960 157.600,213.815 157.395,213.297 156.900 C 212.779 156.405,212.140 156.005,211.878 156.012 C 211.615 156.019,211.760 156.224,212.200 156.468 M255.256 157.600 C 255.256 157.930,255.411 158.560,255.600 159.000 C 255.817 159.504,255.944 159.578,255.944 159.200 C 255.944 158.870,255.789 158.240,255.600 157.800 C 255.383 157.296,255.256 157.222,255.256 157.600 M206.643 159.033 C 206.312 159.895,206.347 161.698,206.706 162.262 C 206.868 162.516,207.000 161.751,207.000 160.562 C 207.000 158.171,206.990 158.128,206.643 159.033 M214.600 160.600 C 214.600 161.768,214.732 162.516,214.894 162.262 C 215.056 162.008,215.188 161.260,215.188 160.600 C 215.188 159.940,215.056 159.192,214.894 158.938 C 214.732 158.684,214.600 159.432,214.600 160.600 M210.100 165.076 C 210.485 165.176,211.115 165.176,211.500 165.076 C 211.885 164.975,211.570 164.893,210.800 164.893 C 210.030 164.893,209.715 164.975,210.100 165.076 M255.429 166.229 C 255.281 166.815,255.238 167.372,255.332 167.466 C 255.427 167.560,255.624 167.158,255.771 166.571 C 255.919 165.985,255.962 165.428,255.868 165.334 C 255.773 165.240,255.576 165.642,255.429 166.229 M202.503 167.733 C 201.778 169.326,200.238 170.143,198.492 169.862 C 197.467 169.698,197.188 169.742,197.600 170.005 C 199.219 171.038,203.669 168.806,203.142 167.225 C 203.039 166.916,202.783 167.120,202.503 167.733 M238.603 167.990 C 238.465 168.424,237.889 169.144,237.322 169.590 C 236.756 170.035,236.480 170.400,236.710 170.400 C 237.194 170.400,239.200 168.119,239.200 167.569 C 239.200 166.931,238.864 167.167,238.603 167.990 M231.200 168.356 C 231.200 168.735,233.155 170.599,233.311 170.368 C 233.374 170.276,232.924 169.716,232.312 169.126 C 231.701 168.535,231.200 168.188,231.200 168.356 M250.600 174.314 C 249.500 175.357,248.150 176.531,247.600 176.923 C 246.637 177.608,246.648 177.609,247.900 176.931 C 249.033 176.318,253.281 172.386,252.785 172.409 C 252.683 172.413,251.700 173.271,250.600 174.314 M218.416 173.131 C 218.395 173.820,220.580 176.005,221.269 175.984 C 221.561 175.975,221.309 175.701,220.708 175.376 C 220.108 175.050,219.350 174.292,219.024 173.692 C 218.699 173.091,218.425 172.839,218.416 173.131 M241.100 180.629 C 239.605 181.440,239.696 181.778,241.200 181.000 C 241.860 180.659,242.400 180.294,242.400 180.190 C 242.400 179.932,242.357 179.947,241.100 180.629 M238.300 182.229 C 236.805 183.040,236.896 183.378,238.400 182.600 C 239.060 182.259,239.600 181.894,239.600 181.790 C 239.600 181.532,239.557 181.547,238.300 182.229 M174.580 183.632 C 174.433 183.870,173.747 184.410,173.056 184.831 C 172.365 185.252,172.022 185.598,172.294 185.599 C 172.806 185.600,175.613 183.232,175.124 183.212 C 174.972 183.205,174.727 183.395,174.580 183.632 M235.400 184.000 C 234.740 184.437,234.380 184.792,234.600 184.788 C 235.001 184.782,237.176 183.223,236.800 183.212 C 236.690 183.208,236.060 183.563,235.400 184.000 M225.900 189.429 C 224.405 190.240,224.496 190.578,226.000 189.800 C 226.660 189.459,227.200 189.094,227.200 188.990 C 227.200 188.732,227.157 188.747,225.900 189.429 M223.100 191.029 C 221.605 191.840,221.696 192.178,223.200 191.400 C 223.860 191.059,224.400 190.694,224.400 190.590 C 224.400 190.332,224.357 190.347,223.100 191.029 M220.300 192.629 C 218.805 193.440,218.896 193.778,220.400 193.000 C 221.060 192.659,221.600 192.294,221.600 192.190 C 221.600 191.932,221.557 191.947,220.300 192.629 M214.600 196.000 C 213.940 196.437,213.580 196.792,213.800 196.788 C 214.201 196.782,216.376 195.223,216.000 195.212 C 215.890 195.208,215.260 195.563,214.600 196.000 M155.268 196.200 C 155.262 196.640,155.411 197.360,155.600 197.800 C 156.038 198.819,156.038 197.768,155.600 196.400 C 155.343 195.596,155.277 195.557,155.268 196.200 M210.700 198.229 C 209.205 199.040,209.296 199.378,210.800 198.600 C 211.460 198.259,212.000 197.894,212.000 197.790 C 212.000 197.532,211.957 197.547,210.700 198.229 M207.900 199.829 C 206.405 200.640,206.496 200.978,208.000 200.200 C 208.660 199.859,209.200 199.494,209.200 199.390 C 209.200 199.132,209.157 199.147,207.900 199.829 M205.100 201.429 C 203.605 202.240,203.696 202.578,205.200 201.800 C 205.860 201.459,206.400 201.094,206.400 200.990 C 206.400 200.732,206.357 200.747,205.100 201.429 M199.400 204.800 C 198.740 205.237,198.380 205.592,198.600 205.588 C 199.001 205.582,201.176 204.023,200.800 204.012 C 200.690 204.008,200.060 204.363,199.400 204.800 M160.702 207.800 C 161.159 208.460,162.308 209.720,163.255 210.600 C 164.715 211.957,164.649 211.835,162.819 209.800 C 159.926 206.583,159.733 206.401,160.702 207.800 M192.700 208.629 C 191.205 209.440,191.296 209.778,192.800 209.000 C 193.460 208.659,194.000 208.294,194.000 208.190 C 194.000 207.932,193.957 207.947,192.700 208.629 M188.859 210.985 C 186.211 212.672,185.659 213.223,187.800 212.043 C 189.416 211.151,191.569 209.617,191.200 209.619 C 191.090 209.620,190.036 210.235,188.859 210.985 M172.200 215.581 C 172.968 215.929,175.110 216.156,174.767 215.853 C 174.675 215.772,173.880 215.596,173.000 215.462 C 171.885 215.293,171.642 215.329,172.200 215.581 M177.400 215.600 C 176.322 215.874,176.302 215.906,177.200 215.913 C 177.750 215.917,178.650 215.776,179.200 215.600 C 180.544 215.169,179.092 215.169,177.400 215.600 M284.707 239.890 C 285.426 239.979,286.506 239.977,287.107 239.886 C 287.708 239.795,287.120 239.722,285.800 239.724 C 284.480 239.726,283.988 239.801,284.707 239.890 M78.400 251.200 C 78.400 261.612,78.449 262.398,79.100 262.368 C 79.518 262.350,79.599 262.256,79.300 262.135 C 78.917 261.981,78.800 259.412,78.800 251.200 C 78.800 242.988,78.917 240.419,79.300 240.265 C 79.599 240.144,79.518 240.050,79.100 240.032 C 78.449 240.002,78.400 240.788,78.400 251.200 M88.833 240.143 C 88.925 240.222,89.720 240.397,90.600 240.532 C 91.690 240.699,92.009 240.655,91.600 240.395 C 91.053 240.046,88.445 239.809,88.833 240.143 M103.600 251.200 C 103.600 257.360,103.735 262.400,103.900 262.400 C 104.065 262.400,104.200 257.360,104.200 251.200 C 104.200 245.040,104.065 240.000,103.900 240.000 C 103.735 240.000,103.600 245.040,103.600 251.200 M107.990 240.263 C 108.251 240.393,108.400 243.638,108.400 249.210 C 108.400 254.018,108.535 258.037,108.700 258.139 C 108.865 258.241,108.910 254.262,108.800 249.295 C 108.648 242.425,108.478 240.241,108.090 240.163 C 107.810 240.106,107.764 240.151,107.990 240.263 M152.000 240.454 C 152.330 240.754,152.859 241.270,153.175 241.600 C 153.621 242.065,153.614 241.980,153.141 241.222 C 152.806 240.684,152.277 240.168,151.966 240.076 C 151.510 239.941,151.517 240.015,152.000 240.454 M173.200 251.200 C 173.200 257.360,173.335 262.400,173.500 262.400 C 173.665 262.400,173.800 257.360,173.800 251.200 C 173.800 245.040,173.665 240.000,173.500 240.000 C 173.335 240.000,173.200 245.040,173.200 251.200 M178.134 241.468 C 180.952 244.736,181.549 245.251,179.561 242.700 C 178.403 241.215,177.324 240.000,177.162 240.000 C 177.001 240.000,177.438 240.661,178.134 241.468 M188.667 240.267 C 188.520 240.413,188.400 243.288,188.400 246.654 C 188.400 252.303,188.346 252.758,187.700 252.550 C 187.109 252.360,187.094 252.392,187.600 252.756 C 188.698 253.546,188.762 253.239,188.881 246.599 C 188.947 242.969,188.985 239.999,188.967 239.999 C 188.948 240.000,188.813 240.120,188.667 240.267 M200.667 240.267 C 200.297 240.636,200.329 261.909,200.700 262.138 C 200.865 262.240,201.000 257.301,201.000 251.162 C 201.000 245.023,200.985 240.000,200.967 240.000 C 200.948 240.000,200.813 240.120,200.667 240.267 M210.833 240.143 C 210.925 240.222,211.720 240.397,212.600 240.532 C 213.690 240.699,214.009 240.655,213.600 240.395 C 213.053 240.046,210.445 239.809,210.833 240.143 M250.977 240.516 C 250.868 240.800,250.829 243.905,250.891 247.416 L 251.003 253.800 251.201 246.899 C 251.396 240.122,251.374 239.481,250.977 240.516 M266.203 240.500 C 265.957 241.218,265.760 255.575,266.000 255.335 C 266.207 255.129,266.688 239.998,266.487 239.999 C 266.426 240.000,266.298 240.225,266.203 240.500 M270.885 247.200 C 270.832 251.270,270.696 255.050,270.583 255.600 L 270.377 256.600 270.797 255.642 C 271.056 255.051,271.172 251.831,271.099 247.242 L 270.981 239.800 270.885 247.200 M299.867 240.267 C 299.497 240.636,299.529 261.909,299.900 262.138 C 300.065 262.240,300.200 257.301,300.200 251.162 C 300.200 245.023,300.185 240.000,300.167 240.000 C 300.148 240.000,300.013 240.120,299.867 240.267 M315.990 240.263 C 316.216 240.375,316.400 241.157,316.400 242.000 C 316.400 242.843,316.216 243.625,315.990 243.737 C 315.764 243.849,315.810 243.894,316.090 243.837 C 316.409 243.772,316.600 243.084,316.600 242.000 C 316.600 240.916,316.409 240.228,316.090 240.163 C 315.810 240.107,315.764 240.151,315.990 240.263 M278.575 242.099 L 277.400 243.397 278.600 242.405 C 279.260 241.859,279.971 241.274,280.180 241.106 C 280.416 240.916,280.406 240.800,280.155 240.800 C 279.932 240.800,279.221 241.384,278.575 242.099 M292.565 241.296 C 293.089 241.699,293.239 242.123,293.041 242.642 C 292.806 243.259,292.849 243.305,293.267 242.889 C 293.853 242.308,293.345 241.167,292.371 240.878 C 292.057 240.785,292.144 240.973,292.565 241.296 M163.014 242.235 C 162.641 242.804,162.405 243.338,162.489 243.422 C 162.573 243.507,162.958 243.041,163.344 242.388 C 164.206 240.928,163.948 240.809,163.014 242.235 M94.400 241.725 C 94.400 241.794,94.985 242.379,95.700 243.025 L 97.000 244.200 95.825 242.900 C 94.730 241.688,94.400 241.416,94.400 241.725 M217.397 242.801 C 219.293 245.018,219.320 245.042,218.886 244.200 C 218.659 243.760,217.962 242.951,217.337 242.401 L 216.200 241.403 217.397 242.801 M167.152 243.300 C 166.890 243.795,166.415 244.650,166.096 245.200 C 165.539 246.159,165.543 246.167,166.188 245.400 C 166.986 244.452,168.105 242.400,167.824 242.400 C 167.716 242.400,167.414 242.805,167.152 243.300 M148.815 243.000 C 148.817 243.220,149.186 243.850,149.636 244.400 C 150.179 245.064,150.315 245.131,150.040 244.600 C 149.366 243.295,148.812 242.572,148.815 243.000 M137.634 243.800 C 137.634 244.020,137.978 244.830,138.400 245.600 C 138.822 246.370,139.166 246.820,139.166 246.600 C 139.166 246.380,138.822 245.570,138.400 244.800 C 137.978 244.030,137.634 243.580,137.634 243.800 M155.000 244.800 C 155.341 245.460,155.711 246.000,155.821 246.000 C 155.931 246.000,155.741 245.460,155.400 244.800 C 155.059 244.140,154.689 243.600,154.579 243.600 C 154.469 243.600,154.659 244.140,155.000 244.800 M284.700 243.889 C 285.415 243.978,286.585 243.978,287.300 243.889 C 288.015 243.801,287.430 243.728,286.000 243.728 C 284.570 243.728,283.985 243.801,284.700 243.889 M291.900 244.467 C 291.308 245.087,291.294 245.200,291.813 245.200 C 292.149 245.200,292.532 244.922,292.662 244.583 C 293.009 243.679,292.698 243.631,291.900 244.467 M83.467 244.267 C 83.098 244.635,83.129 251.509,83.500 251.740 C 83.665 251.842,83.741 250.403,83.670 248.540 C 83.585 246.320,83.705 244.956,84.019 244.577 C 84.487 244.014,83.996 243.738,83.467 244.267 M91.855 245.800 C 92.780 247.379,92.800 247.403,92.800 246.911 C 92.800 246.679,92.429 246.064,91.976 245.544 L 91.153 244.600 91.855 245.800 M160.614 246.235 C 160.241 246.804,160.005 247.338,160.089 247.422 C 160.173 247.507,160.558 247.041,160.944 246.388 C 161.806 244.928,161.548 244.809,160.614 246.235 M219.400 248.000 C 219.400 249.524,219.522 250.462,219.672 250.085 C 219.821 249.708,219.944 248.770,219.944 248.000 C 219.944 247.230,219.821 246.292,219.672 245.915 C 219.522 245.538,219.400 246.476,219.400 248.000 M132.800 245.914 C 132.800 246.087,133.160 246.229,133.600 246.229 C 134.040 246.229,134.400 246.087,134.400 245.914 C 134.400 245.741,134.040 245.600,133.600 245.600 C 133.160 245.600,132.800 245.741,132.800 245.914 M183.974 248.536 C 185.385 250.243,186.732 251.758,186.967 251.903 C 187.201 252.048,186.238 250.770,184.826 249.064 C 183.415 247.357,182.068 245.842,181.833 245.697 C 181.599 245.552,182.562 246.830,183.974 248.536 M164.752 247.300 C 164.490 247.795,164.015 248.650,163.696 249.200 C 163.139 250.159,163.143 250.167,163.788 249.400 C 164.586 248.452,165.705 246.400,165.424 246.400 C 165.316 246.400,165.014 246.805,164.752 247.300 M214.509 248.000 C 214.509 248.990,214.587 249.395,214.682 248.900 C 214.778 248.405,214.778 247.595,214.682 247.100 C 214.587 246.605,214.509 247.010,214.509 248.000 M151.215 247.000 C 151.217 247.220,151.586 247.850,152.036 248.400 C 152.579 249.064,152.715 249.131,152.440 248.600 C 151.766 247.295,151.212 246.572,151.215 247.000 M157.253 248.500 C 157.564 249.220,158.017 249.589,158.564 249.568 C 159.139 249.547,159.213 249.469,158.800 249.320 C 158.470 249.201,157.880 248.720,157.489 248.252 C 156.784 247.407,156.782 247.410,157.253 248.500 M276.815 248.400 C 276.821 248.730,277.090 249.349,277.413 249.776 C 278.168 250.775,278.163 250.405,277.402 248.946 C 277.074 248.316,276.810 248.070,276.815 248.400 M284.833 248.944 C 284.925 249.023,285.540 249.208,286.200 249.356 C 287.076 249.552,287.238 249.515,286.800 249.218 C 286.260 248.853,284.432 248.598,284.833 248.944 M309.584 249.093 C 312.909 249.182,314.684 249.388,314.915 249.713 C 315.163 250.063,315.215 250.031,315.098 249.600 C 314.964 249.107,314.010 248.996,309.767 248.980 L 304.600 248.960 309.584 249.093 M91.263 250.657 C 90.527 251.396,90.098 252.000,90.308 252.000 C 90.785 252.000,92.800 250.015,92.800 249.545 C 92.800 249.103,92.835 249.077,91.263 250.657 M178.000 255.567 C 178.000 259.516,177.844 262.011,177.590 262.137 C 177.365 262.249,177.410 262.294,177.690 262.237 C 178.071 262.160,178.228 260.577,178.311 255.984 C 178.388 251.678,178.568 249.741,178.911 249.523 C 179.251 249.307,179.187 249.210,178.700 249.206 C 178.062 249.201,178.000 249.768,178.000 255.567 M180.824 252.107 C 181.801 253.344,182.752 254.365,182.937 254.378 C 183.308 254.402,180.193 250.566,179.488 250.131 C 179.246 249.981,179.847 250.870,180.824 252.107 M278.400 250.727 C 278.400 250.916,278.850 251.277,279.400 251.527 C 279.950 251.778,280.400 251.917,280.400 251.837 C 280.400 251.757,279.950 251.397,279.400 251.037 C 278.850 250.676,278.400 250.537,278.400 250.727 M153.609 251.100 C 153.614 251.265,153.985 251.850,154.433 252.400 L 155.248 253.400 154.614 252.100 C 154.011 250.865,153.589 250.445,153.609 251.100 M161.453 252.900 L 160.733 254.200 161.558 253.200 C 162.289 252.313,162.614 251.600,162.286 251.600 C 162.224 251.600,161.849 252.185,161.453 252.900 M237.833 252.482 L 238.078 253.565 234.939 253.702 L 231.800 253.839 234.913 253.920 C 238.236 254.005,238.927 253.607,238.028 252.124 C 237.660 251.517,237.628 251.574,237.833 252.482 M96.400 252.331 C 96.400 252.586,95.653 253.336,94.740 253.997 C 93.827 254.659,93.257 255.200,93.473 255.200 C 94.139 255.200,97.019 252.499,96.700 252.173 C 96.535 252.005,96.400 252.076,96.400 252.331 M136.800 252.917 C 136.800 253.449,136.239 253.591,133.700 253.703 L 130.600 253.839 133.713 253.920 C 136.699 253.997,137.988 253.455,137.049 252.516 C 136.912 252.379,136.800 252.559,136.800 252.917 M216.641 254.027 C 215.783 254.672,215.250 255.200,215.456 255.200 C 215.662 255.200,216.453 254.667,217.215 254.016 C 218.987 252.502,218.661 252.508,216.641 254.027 M284.200 253.200 C 284.640 253.389,285.270 253.544,285.600 253.544 C 285.978 253.544,285.904 253.417,285.400 253.200 C 284.960 253.011,284.330 252.856,284.000 252.856 C 283.622 252.856,283.696 252.983,284.200 253.200 M155.526 257.718 C 155.595 259.963,155.775 261.927,155.926 262.082 C 156.077 262.237,156.143 260.527,156.074 258.282 C 156.005 256.037,155.825 254.073,155.674 253.918 C 155.523 253.763,155.457 255.473,155.526 257.718 M91.200 255.600 C 90.376 255.864,90.341 255.926,91.000 255.954 C 91.440 255.973,92.070 255.813,92.400 255.600 C 93.101 255.147,92.614 255.147,91.200 255.600 M213.200 255.600 C 212.376 255.864,212.341 255.926,213.000 255.954 C 213.440 255.973,214.070 255.813,214.400 255.600 C 215.101 255.147,214.614 255.147,213.200 255.600 M83.406 256.500 C 83.088 257.440,82.999 262.402,83.300 262.401 C 83.465 262.400,83.600 261.176,83.600 259.680 C 83.600 258.098,83.801 256.759,84.080 256.480 C 84.453 256.107,84.451 256.000,84.067 256.000 C 83.797 256.000,83.499 256.225,83.406 256.500 M257.903 257.500 C 258.421 257.995,259.060 258.395,259.322 258.388 C 259.585 258.381,259.440 258.176,259.000 257.932 C 258.560 257.688,257.921 257.288,257.580 257.044 C 257.240 256.800,257.385 257.005,257.903 257.500 M187.041 259.500 C 188.316 261.095,189.490 262.400,189.651 262.400 C 189.932 262.400,188.689 260.895,186.015 258.000 C 185.304 257.230,185.765 257.905,187.041 259.500 M269.809 257.572 C 269.664 258.030,269.068 258.988,268.486 259.702 C 267.573 260.822,267.555 260.891,268.355 260.201 C 269.357 259.337,270.580 257.246,270.266 256.933 C 270.160 256.827,269.954 257.114,269.809 257.572 M131.300 257.496 C 132.565 257.575,134.635 257.575,135.900 257.496 C 137.165 257.416,136.130 257.351,133.600 257.351 C 131.070 257.351,130.035 257.416,131.300 257.496 M232.300 257.496 C 233.675 257.574,235.925 257.574,237.300 257.496 C 238.675 257.418,237.550 257.354,234.800 257.354 C 232.050 257.354,230.925 257.418,232.300 257.496 M252.000 257.848 C 252.000 258.058,252.553 258.853,253.229 259.615 L 254.458 261.000 253.345 259.400 C 252.733 258.520,252.180 257.725,252.116 257.633 C 252.052 257.542,252.000 257.638,252.000 257.848 M280.400 258.000 C 280.730 258.213,281.270 258.388,281.600 258.388 C 282.133 258.388,282.133 258.345,281.600 258.000 C 281.270 257.787,280.730 257.612,280.400 257.612 C 279.867 257.612,279.867 257.655,280.400 258.000 M293.803 258.391 C 293.665 258.826,292.892 259.726,292.085 260.391 C 291.278 261.056,290.818 261.600,291.062 261.600 C 291.592 261.600,294.400 258.571,294.400 257.999 C 294.400 257.334,294.069 257.551,293.803 258.391 M119.536 260.048 C 119.640 261.138,119.508 261.825,119.147 262.078 C 118.701 262.390,118.711 262.431,119.200 262.299 C 119.842 262.126,120.331 258.400,119.711 258.400 C 119.528 258.400,119.450 259.141,119.536 260.048 M283.900 258.689 C 284.615 258.778,285.785 258.778,286.500 258.689 C 287.215 258.601,286.630 258.528,285.200 258.528 C 283.770 258.528,283.185 258.601,283.900 258.689 M245.617 258.920 C 245.608 259.096,245.887 259.795,246.238 260.473 C 246.765 261.492,246.782 261.765,246.338 262.047 C 245.923 262.310,245.960 262.389,246.500 262.394 C 246.885 262.397,247.192 262.175,247.183 261.900 C 247.164 261.328,245.642 258.433,245.617 258.920 M223.085 260.590 C 222.491 261.837,222.769 262.964,223.493 262.240 C 223.625 262.108,223.519 262.000,223.256 262.000 C 222.922 262.000,222.971 261.630,223.419 260.763 C 223.771 260.082,223.988 259.455,223.901 259.368 C 223.814 259.281,223.447 259.831,223.085 260.590 M265.400 261.622 C 264.520 262.038,264.034 262.384,264.320 262.390 C 264.902 262.401,267.200 261.284,267.200 260.990 C 267.200 260.756,267.318 260.714,265.400 261.622 M280.000 261.982 C 280.330 262.205,280.945 262.391,281.367 262.394 C 282.390 262.402,282.071 262.173,280.600 261.844 C 279.724 261.648,279.562 261.685,280.000 261.982 M260.105 262.687 C 260.714 262.779,261.614 262.777,262.105 262.682 C 262.597 262.587,262.100 262.511,261.000 262.514 C 259.900 262.517,259.497 262.595,260.105 262.687 M284.505 262.687 C 285.114 262.779,286.014 262.777,286.505 262.682 C 286.997 262.587,286.500 262.511,285.400 262.514 C 284.300 262.517,283.897 262.595,284.505 262.687 " stroke="none" fill="#7c7c7c" fill-rule="evenodd"></path><path id="path4" d="M154.591 158.000 C 154.591 176.590,154.640 184.195,154.700 174.900 C 154.760 165.605,154.760 150.395,154.700 141.100 C 154.640 131.805,154.591 139.410,154.591 158.000 M103.375 251.200 C 103.375 257.250,103.431 259.725,103.499 256.700 C 103.567 253.675,103.567 248.725,103.499 245.700 C 103.431 242.675,103.375 245.150,103.375 251.200 M172.975 251.200 C 172.975 257.250,173.031 259.725,173.099 256.700 C 173.167 253.675,173.167 248.725,173.099 245.700 C 173.031 242.675,172.975 245.150,172.975 251.200 M307.500 253.096 C 308.875 253.174,311.125 253.174,312.500 253.096 C 313.875 253.018,312.750 252.954,310.000 252.954 C 307.250 252.954,306.125 253.018,307.500 253.096 M85.305 256.287 C 85.914 256.379,86.814 256.377,87.305 256.282 C 87.797 256.187,87.300 256.111,86.200 256.114 C 85.100 256.117,84.697 256.195,85.305 256.287 M206.900 256.287 C 207.505 256.378,208.495 256.378,209.100 256.287 C 209.705 256.195,209.210 256.120,208.000 256.120 C 206.790 256.120,206.295 256.195,206.900 256.287 M111.717 258.297 C 113.211 258.374,115.551 258.374,116.917 258.296 C 118.282 258.218,117.060 258.155,114.200 258.155 C 111.340 258.156,110.222 258.220,111.717 258.297 M316.909 260.400 C 316.909 261.390,316.987 261.795,317.082 261.300 C 317.178 260.805,317.178 259.995,317.082 259.500 C 316.987 259.005,316.909 259.410,316.909 260.400 " stroke="none" fill="#848484" fill-rule="evenodd"></path></g></svg>